<svg xmlns="http://www.w3.org/2000/svg" height="24" viewBox="0 -960 960 960" width="24"><path fill="rgb(239,68,68)" d="M363-250.717h216q15.891 0 29.446-7.75 13.554-7.75 19.354-22.217L709-469q2-5.25 3-10.5t1-10.5v-30.041Q713-536 702.5-546.5T676-557H492l23.522-130.13q2.239-10.196-1.009-20.271-3.247-10.075-10.665-17.751L479-750 303-559q-7 8-11 17.375T288-521v195.384q0 30.836 22.031 52.867 22.031 22.032 52.969 22.032ZM480-81.869q-82.82 0-155.41-31.381-72.591-31.381-126.288-85.177-53.697-53.796-85.065-126.315Q81.869-397.262 81.869-480q0-82.82 31.381-155.41 31.381-72.591 85.177-126.288 53.796-53.697 126.315-85.065 72.52-31.368 155.258-31.368 82.82 0 155.41 31.381 72.591 31.381 126.288 85.177 53.697 53.796 85.065 126.315 31.368 72.52 31.368 155.258 0 82.82-31.381 155.41-31.381 72.591-85.177 126.288-53.796 53.697-126.315 85.065Q562.738-81.869 480-81.869Zm0-86.001q130.543 0 221.337-90.793Q792.13-349.457 792.13-480t-90.793-221.337Q610.543-792.13 480-792.13t-221.337 90.793Q167.87-610.543 167.87-480t90.793 221.337Q349.457-167.87 480-167.87ZM480-480Z"/></svg>